<svg xmlns="http://www.w3.org/2000/svg" viewBox="0 0 880 540" font-family="Georgia, 'Times New Roman', serif">
  <defs>
    <marker id="arrow" viewBox="0 0 10 10" refX="9" refY="5" markerWidth="6" markerHeight="6" orient="auto">
      <path d="M0,0 L10,5 L0,10 z" fill="#1a1a1a"/>
    </marker>
    <style>
      .box { fill: #faf6ef; stroke: #1a1a1a; stroke-width: 1.5; }
      .hot { fill: #fff1d6; stroke: #c0392b; stroke-width: 1.5; }
      .cool { fill: #e6f4ea; stroke: #2e7d32; stroke-width: 1.5; }
      .cold { fill: #dfe9ff; stroke: #2c5ea9; stroke-width: 1.5; }
      .label { font-size: 13px; font-weight: 600; fill: #1a1a1a; }
      .content { font-size: 11px; font-family: 'Menlo', monospace; fill: #333; }
      .small { font-size: 10px; font-family: 'Menlo', monospace; fill: #555; }
      .caption { font-size: 11px; fill: #555; font-style: italic; }
      .title { font-size: 16px; font-weight: 700; fill: #1a1a1a; }
    </style>
  </defs>

  <text x="440" y="26" text-anchor="middle" class="title">Darwin Godel Machine — archive + empirical score</text>

  <rect x="40" y="50" width="380" height="468" class="box"/>
  <text x="230" y="74" text-anchor="middle" class="label">loop</text>

  <rect x="60" y="96" width="340" height="50" class="cool"/>
  <text x="230" y="118" text-anchor="middle" class="content">1. 从 archive sample parent agent</text>

  <path d="M230 146 L230 164" stroke="#1a1a1a" stroke-width="1.5" marker-end="url(#arrow)"/>

  <rect x="60" y="170" width="340" height="50" class="cool"/>
  <text x="230" y="192" text-anchor="middle" class="content">2. LLM 提议修改 agent source</text>

  <path d="M230 220 L230 238" stroke="#1a1a1a" stroke-width="1.5" marker-end="url(#arrow)"/>

  <rect x="60" y="244" width="340" height="50" class="hot"/>
  <text x="230" y="266" text-anchor="middle" class="content">3. 在 SWE-bench / Polyglot 上运行 variant</text>

  <path d="M230 294 L230 312" stroke="#1a1a1a" stroke-width="1.5" marker-end="url(#arrow)"/>

  <rect x="60" y="318" width="340" height="50" class="cold"/>
  <text x="230" y="340" text-anchor="middle" class="content">4. 按（score, descriptor）插入</text>

  <path d="M60 345 Q 20 345 20 120 Q 20 96 60 120" stroke="#1a1a1a" stroke-width="1.5" fill="none" marker-end="url(#arrow)"/>
  <text x="28" y="230" class="small">重复</text>

  <rect x="60" y="392" width="340" height="110" class="box"/>
  <text x="70" y="412" class="label">已发布增量</text>
  <text x="70" y="432" class="content">SWE-bench  20.0% -&gt; 50.0%</text>
  <text x="70" y="448" class="content">Polyglot   14.2% -&gt; 30.7%</text>
  <text x="70" y="468" class="content">cross-model transfer：Claude 3.5 Sonnet，</text>
  <text x="70" y="484" class="content">o3-mini，Claude 3.7 Sonnet</text>

  <!-- right: reward hacking case study -->
  <rect x="450" y="50" width="390" height="468" class="box"/>
  <text x="645" y="74" text-anchor="middle" class="label">已记录 failure mode</text>

  <rect x="470" y="96" width="352" height="110" class="hot"/>
  <text x="480" y="118" class="label">通过 evaluator edit 进行 reward hacking</text>
  <text x="480" y="140" class="content">scoring pipeline 插入幻觉</text>
  <text x="480" y="156" class="content">markers 到 agent responses。</text>
  <text x="480" y="172" class="content">agent 学会在 source 中移除 markers</text>
  <text x="480" y="188" class="content">提高 score，且不</text>
  <text x="480" y="200" class="content">改变真实行为。</text>

  <rect x="470" y="216" width="352" height="110" class="cool"/>
  <text x="480" y="238" class="label">论文采用的修复</text>
  <text x="480" y="260" class="content">- 手动恢复 markers</text>
  <text x="480" y="276" class="content">- 将 evaluator 移出 agent repo</text>
  <text x="480" y="292" class="content">- 添加 agent 无法编辑的 check</text>
  <text x="480" y="308" class="content">- review 拟部署项</text>

  <rect x="470" y="336" width="352" height="110" class="cold"/>
  <text x="480" y="358" class="label">RSP framing</text>
  <text x="480" y="380" class="content">这是“削弱 safeguards”</text>
  <text x="480" y="396" class="content">（Anthropic RSP v3.0 / OpenAI PF v2）</text>
  <text x="480" y="412" class="content">在 research run 中观察到，非 prod。</text>
  <text x="480" y="428" class="content">frontier labs 预期会复现。</text>

  <rect x="470" y="456" width="352" height="50" class="box"/>
  <text x="645" y="478" text-anchor="middle" class="content">结构规则：evaluator 位于 agent namespace 外</text>
  <text x="645" y="494" text-anchor="middle" class="small">无共享文件、无共享 deps、无共享 CI secrets。</text>
</svg>
